<svg xmlns="http://www.w3.org/2000/svg" fill="none" viewBox="0 0 24 24"><g stroke="#000" stroke-linecap="round" stroke-linejoin="round" stroke-width="2"><path d="M15 5.5v13c0 .465 0 .697.038.89a2 2 0 001.571 1.572c.194.038.426.038.89.038.465 0 .698 0 .892-.038a2 2 0 001.57-1.572C20 19.2 20 18.97 20 18.512V5.488c0-.457 0-.687-.038-.879a2 2 0 00-1.572-1.57C18.197 3 17.965 3 17.5 3s-.697 0-.89.038a1.999 1.999 0 00-1.572 1.571C15 4.803 15 5.035 15 5.5zM4 5.5v13c0 .465 0 .697.038.89a2 2 0 001.571 1.572c.194.038.426.038.89.038.465 0 .698 0 .892-.038a2 2 0 001.57-1.572C9 19.2 9 18.97 9 18.512V5.488c0-.457 0-.687-.038-.879A2 2 0 007.39 3.04C7.197 3 6.965 3 6.5 3s-.697 0-.89.038A1.999 1.999 0 004.037 4.61C4 4.803 4 5.035 4 5.5z"/></g></svg>